<svg width="80" height="80" viewBox="0 0 80 80" fill="none" xmlns="http://www.w3.org/2000/svg">
<path fill-rule="evenodd" clip-rule="evenodd" d="M40.45 75.9957C49.3659 75.825 57.2991 70.5898 62.4898 62.4898C70.1786 57.5626 75.2861 50.1643 75.9308 41.8C75.9767 41.3238 76 40.8436 76 40.36L75.9998 40.2927C75.9997 40.2618 75.9995 40.2309 75.9991 40.2L75.9998 40.1L76 40L75.9997 39.8875L76 39.82C76 39.7298 75.9986 39.6398 75.9957 39.55C75.825 30.6341 70.5898 22.7009 62.4898 17.5102C57.2991 9.41019 49.3659 4.17502 40.45 4.00431C40.3602 4.00144 40.2702 4 40.18 4L40.1125 4.00027L40 4C39.9333 4 39.8666 4.00028 39.8 4.00085C39.7467 4.00028 39.6934 4 39.64 4C39.1564 4 38.6762 4.02328 38.2 4.06917C29.8357 4.71392 22.4374 9.82138 17.5102 17.5102C9.41019 22.7009 4.17502 30.6341 4.00431 39.55C4.00144 39.6398 4 39.7298 4 39.82L4.00027 39.8875L4 40C4 40.0667 4.00028 40.1334 4.00085 40.2C4.00028 40.2533 4 40.3066 4 40.36C4 40.8436 4.02328 41.3238 4.06917 41.8C4.71392 50.1643 9.82138 57.5626 17.5102 62.4898C22.4374 70.1786 29.8357 75.2861 38.2 75.9308C38.6762 75.9767 39.1564 76 39.64 76L39.7073 75.9998C39.7382 75.9997 39.7691 75.9995 39.8 75.9991L39.9 75.9998L40 76L40.1125 75.9997L40.18 76C40.2702 76 40.3602 75.9986 40.45 75.9957ZM45.1582 74.9609C51.6733 73.4548 57.4304 69.1484 61.579 63.0547C59.7177 64.1715 57.7168 65.1473 55.6009 65.9625C52.7314 70.2705 49.1492 73.4281 45.1582 74.9609ZM74.3959 47.1816C72.5321 52.8629 68.5095 57.8654 63.0547 61.579C63.9982 60.0065 64.8412 58.3343 65.5716 56.5773C69.5975 53.9773 72.662 50.7666 74.3959 47.1816ZM62.1651 62.1651C63.1937 60.5514 64.1128 58.8223 64.9079 56.9951C63.0493 58.1353 61 59.1491 58.7937 60.015C57.9774 61.9184 57.048 63.6933 56.0205 65.3163C58.2096 64.4332 60.2672 63.3749 62.1651 62.1651ZM75.2319 43.3875C74.2243 48.1465 70.8716 52.4676 65.8687 55.8421C66.4775 54.2919 66.9996 52.679 67.4274 51.0133C71.2423 48.8616 73.9778 46.2554 75.2319 43.3875ZM65.2137 56.2724C65.8667 54.6855 66.4273 53.0282 66.8863 51.3115C65.0998 52.2738 63.0924 53.1396 60.9023 53.8906C60.3827 55.8301 59.7575 57.6835 59.0381 59.4332C61.2798 58.5265 63.351 57.4646 65.2137 56.2724ZM75.5467 40.0495C75.4357 43.8973 72.5369 47.5191 67.5779 50.4086C68.3728 47.1135 68.8 43.6191 68.8 40C68.8 36.2267 68.3356 32.589 67.4743 29.1713C71.9279 31.7423 74.7428 34.9001 75.4011 38.2841C75.4851 38.8669 75.534 39.4557 75.5467 40.0495ZM68.35 40C68.35 36.1058 67.8522 32.3641 66.9335 28.8664C66.3979 28.5715 65.8401 28.2848 65.2611 28.0069C63.9224 27.3643 62.4763 26.7722 60.9364 26.2372C62.0599 30.4772 62.68 35.1254 62.68 40C62.68 44.7233 62.0978 49.2341 61.0395 53.3668C62.5409 52.8413 63.9524 52.2613 65.2611 51.6331C65.8791 51.3365 66.4729 51.0298 67.0414 50.7139C67.8911 47.3371 68.35 43.7388 68.35 40ZM74.4664 34.8143C73.0003 32.4854 70.5377 30.3641 67.3166 28.5646C67.0024 27.3914 66.6412 26.2451 66.2358 25.1293C70.1519 27.8515 73.0122 31.1654 74.4664 34.8143ZM66.7712 28.2668C66.4307 27.0447 66.0384 25.8535 65.5978 24.6972C65.4707 24.6133 65.3425 24.53 65.2133 24.4473C63.446 23.3162 61.4913 22.3026 59.3811 21.4272C59.9107 22.7987 60.3834 24.2297 60.7942 25.7125C62.9793 26.4559 64.9842 27.3134 66.7712 28.2668ZM74.9609 34.8418C73.4281 30.8508 70.2705 27.2686 65.9626 24.3991C65.1474 22.2832 64.1715 20.2823 63.0547 18.421C69.1484 22.5696 73.4548 28.3267 74.9609 34.8418ZM65.3164 23.9795C64.4332 21.7904 63.3749 19.7328 62.1651 17.8349C60.2672 16.6251 58.2096 15.5668 56.0205 14.6837C57.2017 16.5494 58.2533 18.616 59.1524 20.8476C61.384 21.7467 63.4506 22.7983 65.3164 23.9795ZM45.1582 5.03912C51.6733 6.5452 57.4305 10.8516 61.579 16.9453C59.7177 15.8285 57.7168 14.8527 55.6009 14.0375C52.7314 9.72952 49.1492 6.57187 45.1582 5.03912ZM45.1857 5.53362C48.8346 6.98779 52.1485 9.84808 54.8707 13.7642C53.7549 13.3588 52.6086 12.9976 51.4354 12.6834C49.6359 9.4623 47.5146 6.99971 45.1857 5.53362ZM51.7332 13.2288C52.9553 13.5694 54.1465 13.9616 55.3028 14.4022C55.3867 14.5293 55.47 14.6575 55.5527 14.7867C56.6838 16.554 57.6974 18.5087 58.5728 20.6189C57.2014 20.0893 55.7703 19.6166 54.2875 19.2058C53.5441 17.0207 52.6866 15.0158 51.7332 13.2288ZM54.4597 19.7215C55.9671 20.1494 57.4189 20.6421 58.8062 21.1938C59.3579 22.5811 59.8506 24.0329 60.2785 25.5403C58.8337 25.0666 57.3134 24.6422 55.728 24.272C55.3578 22.6866 54.9334 21.1662 54.4597 19.7215ZM55.8399 24.7607C57.4402 25.1407 58.9718 25.5765 60.4235 26.0623C61.5855 30.3394 62.23 35.0495 62.23 40C62.23 44.7984 61.6245 49.3709 60.5292 53.5422C59.0715 54.0338 57.5327 54.4747 55.924 54.8593C56.8023 50.8266 57.3341 46.3968 57.4403 41.7348C57.5128 41.1063 57.55 40.4674 57.55 39.82C57.55 39.1381 57.5087 38.4656 57.4284 37.8048C57.2944 33.1651 56.7387 28.7623 55.8399 24.7607ZM56.8456 35.0287C56.6007 31.3575 56.0886 27.8677 55.3528 24.6472C51.3758 23.7386 46.988 23.171 42.3549 23.0266C49.2691 23.8544 54.9239 28.6604 56.8456 35.0287ZM56.9792 37.84C55.9775 29.685 48.8669 23.35 40.225 23.35C30.9485 23.35 23.4364 30.6495 23.3507 39.6641C23.3504 39.735 23.3502 39.806 23.3501 39.8771C23.3816 48.937 30.9146 56.29 40.225 56.29C48.9013 56.29 56.0342 49.9044 56.9909 41.7025C57.0036 41.1384 57.01 40.5708 57.01 40C57.01 39.2746 56.9996 38.5544 56.9792 37.84ZM56.8747 44.5138C54.9814 50.9306 49.3043 55.7814 42.3549 56.6134C47.0211 56.4679 51.4386 55.8933 55.4382 54.9732C56.1581 51.7244 56.6515 48.2084 56.8747 44.5138ZM38.2337 56.6294C33.4978 56.519 29.0087 55.9667 24.9409 55.0591C24.1844 51.6688 23.6749 47.9859 23.4621 44.1114C25.2445 50.77 31.0763 55.8295 38.2337 56.6294ZM22.9001 39.8775C22.9 39.9183 22.9 39.9592 22.9 40C22.9 45.3332 23.4567 50.3956 24.4556 54.9487C22.4129 54.4748 20.48 53.9107 18.6795 53.2675C17.6292 49.1705 17.05 44.6933 17.05 40C17.05 35.1547 17.6673 30.5398 18.7831 26.3357C20.5789 25.699 22.5054 25.1406 24.5401 24.6718C23.5099 29.2263 22.9245 34.3037 22.9008 39.6608C22.9002 39.7138 22.9 39.7669 22.9 39.82C22.9 39.8392 22.9 39.8583 22.9001 39.8775ZM23.4887 35.4305C23.7243 31.5794 24.2536 27.923 25.0268 24.5618C29.0719 23.6655 33.5311 23.1203 38.2336 23.0106C31.1115 23.8066 25.3018 28.8203 23.4887 35.4305ZM55.8155 55.3475C57.4099 54.9726 58.938 54.5429 60.3892 54.0633C59.8495 56.0289 59.2003 57.9022 58.454 59.6645C57.0909 60.1926 55.6674 60.6641 54.1914 61.0738C54.8134 59.282 55.3582 57.3662 55.8155 55.3475ZM54.0087 61.5905C55.4582 61.1983 56.8593 60.747 58.2044 60.2414C57.4169 62.0245 56.5285 63.6886 55.5527 65.2133C55.47 65.3425 55.3867 65.4707 55.3028 65.5978C54.1465 66.0384 52.9553 66.4306 51.7332 66.7712C52.5696 65.2035 53.3322 63.4682 54.0087 61.5905ZM51.4354 67.3166C52.6086 67.0024 53.7549 66.6412 54.8707 66.2358C52.1485 70.1519 48.8346 73.0122 45.1857 74.4664C47.5146 73.0003 49.6359 70.5377 51.4354 67.3166ZM51.9931 65.2611C51.7152 65.8401 51.4285 66.3979 51.1336 66.9335C47.6359 67.8522 43.8942 68.35 40 68.35C36.2612 68.35 32.6629 67.8911 29.2861 67.0414C28.9702 66.4729 28.6635 65.8791 28.3669 65.2611C27.8504 64.1851 27.3664 63.0396 26.9186 61.8317C30.9733 62.8443 35.3852 63.4 40 63.4C44.7659 63.4 49.3155 62.8073 53.4787 61.7307C53.0205 62.9757 52.524 64.1551 51.9931 65.2611ZM40 68.8C36.3809 68.8 32.8865 68.3728 29.5914 67.5779C32.4809 72.5369 36.1027 75.4357 39.9505 75.5467C40.5443 75.534 41.1331 75.4851 41.7159 75.4011C45.0999 74.7428 48.2577 71.9279 50.8287 67.4743C47.411 68.3356 43.7733 68.8 40 68.8ZM26.3897 61.6965C27.0733 63.5795 27.8437 65.318 28.6885 66.8863C26.9718 66.4273 25.3145 65.8667 23.7276 65.2137C22.6907 63.5936 21.7522 61.8156 20.9288 59.905C22.6563 60.5969 24.482 61.1976 26.3897 61.6965ZM28.9867 67.4273C27.321 66.9996 25.7081 66.4774 24.1579 65.8687C27.5324 70.8716 31.8535 74.2243 36.6125 75.2319C33.7446 73.9778 31.1384 71.2423 28.9867 67.4273ZM20.3371 59.6629C21.122 61.54 22.0159 63.2957 23.0049 64.9079C21.1777 64.1128 19.4486 63.1937 17.8349 62.1651C16.8063 60.5514 15.8872 58.8223 15.0922 56.9951C16.7043 57.9841 18.46 58.8781 20.3371 59.6629ZM23.4227 65.5716C21.6657 64.8412 19.9935 63.9982 18.421 63.0547C22.1346 68.5095 27.1371 72.5321 32.8184 74.3959C29.2334 72.662 26.0227 69.5975 23.4227 65.5716ZM14.4284 56.5773C15.1589 58.3343 16.0018 60.0065 16.9453 61.579C11.4906 57.8654 7.46794 52.863 5.60407 47.1817C7.33796 50.7666 10.4025 53.9773 14.4284 56.5773ZM14.7863 56.2724C14.1333 54.6855 13.5727 53.0282 13.1137 51.3115C14.682 52.1563 16.4206 52.9267 18.3035 53.6103C18.8024 55.518 19.4031 57.3437 20.095 59.0712C18.1844 58.2478 16.4064 57.3093 14.7863 56.2724ZM14.1313 55.8421C13.5225 54.2919 13.0004 52.679 12.5727 51.0133C8.75768 48.8616 6.02217 46.2554 4.76809 43.3875C5.77567 48.1465 9.12843 52.4676 14.1313 55.8421ZM14.7389 51.6331C14.1209 51.3365 13.5271 51.0298 12.9586 50.7139C12.1089 47.3371 11.65 43.7388 11.65 40C11.65 36.1058 12.1478 32.3641 13.0665 28.8664C13.6021 28.5715 14.1599 28.2848 14.7389 28.0069C15.8449 27.476 17.0243 26.9795 18.2693 26.5213C17.1927 30.6845 16.6 35.2341 16.6 40C16.6 44.6148 17.1557 49.0267 18.1683 53.0814C16.9605 52.6336 15.8149 52.1496 14.7389 51.6331ZM11.2 40C11.2 36.2267 11.6644 32.589 12.5257 29.1713C8.07211 31.7423 5.25718 34.9001 4.5989 38.284C4.51492 38.8669 4.46597 39.4557 4.45331 40.0495C4.56432 43.8973 7.46311 47.5191 12.4221 50.4086C11.6272 47.1135 11.2 43.6191 11.2 40ZM18.4095 25.9913C16.5318 26.6678 14.7965 27.4304 13.2288 28.2668C13.5694 27.0447 13.9616 25.8535 14.4022 24.6972C14.5293 24.6133 14.6575 24.53 14.7867 24.4473C16.3114 23.4715 17.9755 22.5831 19.7586 21.7956C19.253 23.1407 18.8017 24.5418 18.4095 25.9913ZM12.6834 28.5646C12.9976 27.3914 13.3588 26.2451 13.7642 25.1293C9.84808 27.8515 6.98779 31.1654 5.53362 34.8143C6.9997 32.4854 9.4623 30.3641 12.6834 28.5646ZM19.985 21.2062C18.0816 22.0225 16.3067 22.952 14.6837 23.9795C15.5668 21.7904 16.6251 19.7328 17.8349 17.8349C19.4486 16.8063 21.1777 15.8872 23.0049 15.0922C21.8647 16.9507 20.8509 19 19.985 21.2062ZM14.0375 24.3991C14.8527 22.2832 15.8285 20.2823 16.9453 18.421C10.8516 22.5696 6.5452 28.3267 5.03912 34.8418C6.57187 30.8508 9.72951 27.2686 14.0375 24.3991ZM23.4227 14.4284C21.6657 15.1589 19.9935 16.0018 18.421 16.9453C22.1346 11.4906 27.137 7.46794 32.8183 5.60407C29.2334 7.33796 26.0227 10.4025 23.4227 14.4284ZM23.7276 14.7863C25.3145 14.1333 26.9718 13.5727 28.6885 13.1137C27.7262 14.9002 26.8603 16.9076 26.1094 19.0977C24.1698 19.6173 22.3165 20.2424 20.5668 20.9619C21.4735 18.7201 22.5354 16.649 23.7276 14.7863ZM24.1579 14.1313C25.7081 13.5226 27.321 13.0004 28.9867 12.5727C31.1384 8.75768 33.7446 6.02217 36.6125 4.76809C31.8535 5.77567 27.5324 9.12843 24.1579 14.1313ZM28.3669 14.7389C28.6635 14.1209 28.9702 13.5271 29.2861 12.9586C32.6629 12.1089 36.2612 11.65 40 11.65C43.8942 11.65 47.6359 12.1478 51.1336 13.0665C51.4285 13.6022 51.7152 14.1599 51.9931 14.7389C52.6357 16.0776 53.2278 17.5237 53.7628 19.0636C49.5228 17.94 44.8746 17.32 40 17.32C35.2767 17.32 30.7659 17.9022 26.6332 18.9605C27.1587 17.4591 27.7387 16.0476 28.3669 14.7389ZM40 11.2C43.7733 11.2 47.411 11.6644 50.8287 12.5257C48.2577 8.07212 45.0999 5.25718 41.716 4.5989C41.1331 4.51492 40.5443 4.46597 39.9505 4.45331C36.1027 4.56432 32.4809 7.46311 29.5914 12.4221C32.8865 11.6272 36.3809 11.2 40 11.2ZM40 17.77C44.9505 17.77 49.6606 18.4145 53.9377 19.5765C54.4235 21.0282 54.8593 22.5598 55.2393 24.1601C50.6114 23.1207 45.447 22.54 40 22.54C34.7016 22.54 29.6706 23.0894 25.1407 24.076C25.5253 22.4673 25.9662 20.9285 26.4578 19.4708C30.6291 18.3755 35.2016 17.77 40 17.77ZM40 57.1C45.4819 57.1 50.6776 56.5119 55.3282 55.4599C54.8594 57.4946 54.301 59.4211 53.6643 61.2169C49.4602 62.3326 44.8453 62.95 40 62.95C35.3067 62.95 30.8295 62.3708 26.7325 61.3204C26.0893 59.52 25.5252 57.5871 25.0513 55.5444C29.6044 56.5433 34.6668 57.1 40 57.1ZM24.5645 55.4355C25.027 57.4627 25.5778 59.3855 26.2064 61.1824C24.271 60.6631 22.4234 60.0379 20.6814 59.3186C19.9621 57.5766 19.3369 55.729 18.8176 53.7936C20.6145 54.4223 22.5373 54.973 24.5645 55.4355ZM24.6525 24.1845C22.6338 24.6418 20.718 25.1866 18.9262 25.8086C19.3359 24.3326 19.8074 22.9091 20.3355 21.546C22.0978 20.7997 23.9711 20.1505 25.9367 19.6108C25.4571 21.062 25.0274 22.5901 24.6525 24.1845Z" fill="url(#paint0_linear_1005_22862)"/>
<defs>
<linearGradient id="paint0_linear_1005_22862" x1="12.1" y1="14.35" x2="63.4" y2="75.1" gradientUnits="userSpaceOnUse">
<stop stop-color="#422585"/>
<stop offset="0.376612" stop-color="#422585"/>
<stop offset="1" stop-color="#422585" stop-opacity="0"/>
</linearGradient>
</defs>
</svg>
