<svg width="80" height="80" viewBox="0 0 80 80" fill="none" xmlns="http://www.w3.org/2000/svg">
<path d="M40.8214 4L48.6429 19.6429H33L40.8214 4Z" fill="url(#paint0_linear_1357_33075)"/>
<path d="M40.8214 35.2852L48.6429 19.6423H33L40.8214 35.2852Z" fill="url(#paint1_linear_1357_33075)"/>
<path d="M40.8214 45.7129L48.6429 61.3557H33L40.8214 45.7129Z" fill="url(#paint2_linear_1357_33075)"/>
<path d="M40.8214 76.998L48.6429 61.3552H33L40.8214 76.998Z" fill="url(#paint3_linear_1357_33075)"/>
<path d="M4 41.1786L19.6429 33.3571V49L4 41.1786Z" fill="url(#paint4_linear_1357_33075)"/>
<path d="M35.2861 41.1786L19.6433 33.3571V49L35.2861 41.1786Z" fill="url(#paint5_linear_1357_33075)"/>
<path d="M45.7139 41.1786L61.3567 33.3571V49L45.7139 41.1786Z" fill="url(#paint6_linear_1357_33075)"/>
<path d="M77 41.1786L61.3571 33.3571V49L77 41.1786Z" fill="url(#paint7_linear_1357_33075)"/>
<path d="M14.5316 14.4694L31.1233 20L20.0621 31.0612L14.5316 14.4694Z" fill="url(#paint8_linear_1357_33075)"/>
<path d="M36.6536 36.5905L31.123 19.9988L20.0619 31.0599L36.6536 36.5905Z" fill="url(#paint9_linear_1357_33075)"/>
<path d="M44.0277 43.9655L60.6194 49.4961L49.5582 60.5573L44.0277 43.9655Z" fill="url(#paint10_linear_1357_33075)"/>
<path d="M66.1497 66.0866L60.6191 49.4948L49.558 60.556L66.1497 66.0866Z" fill="url(#paint11_linear_1357_33075)"/>
<path d="M66.4684 14.4694L49.8767 20L60.9379 31.0612L66.4684 14.4694Z" fill="url(#paint12_linear_1357_33075)"/>
<path d="M44.3464 36.5905L49.877 19.9988L60.9381 31.0599L44.3464 36.5905Z" fill="url(#paint13_linear_1357_33075)"/>
<path d="M36.9723 43.9655L20.3806 49.4961L31.4418 60.5573L36.9723 43.9655Z" fill="url(#paint14_linear_1357_33075)"/>
<path d="M14.8503 66.0866L20.3809 49.4948L31.442 60.556L14.8503 66.0866Z" fill="url(#paint15_linear_1357_33075)"/>
<defs>
<linearGradient id="paint0_linear_1357_33075" x1="40.8214" y1="4" x2="40.8214" y2="19.6429" gradientUnits="userSpaceOnUse">
<stop stop-color="#422585"/>
<stop offset="0.5" stop-color="#422585" stop-opacity="0.595"/>
<stop offset="1" stop-color="#422585" stop-opacity="0.19"/>
</linearGradient>
<linearGradient id="paint1_linear_1357_33075" x1="40.8214" y1="35.2852" x2="40.8214" y2="19.6423" gradientUnits="userSpaceOnUse">
<stop stop-color="#422585"/>
<stop offset="0.5" stop-color="#422585" stop-opacity="0.595"/>
<stop offset="1" stop-color="#422585" stop-opacity="0.19"/>
</linearGradient>
<linearGradient id="paint2_linear_1357_33075" x1="40.8214" y1="45.7129" x2="40.8214" y2="61.3557" gradientUnits="userSpaceOnUse">
<stop stop-color="#422585"/>
<stop offset="0.5" stop-color="#422585" stop-opacity="0.595"/>
<stop offset="1" stop-color="#422585" stop-opacity="0.19"/>
</linearGradient>
<linearGradient id="paint3_linear_1357_33075" x1="40.8214" y1="76.998" x2="40.8214" y2="61.3552" gradientUnits="userSpaceOnUse">
<stop stop-color="#422585"/>
<stop offset="0.5" stop-color="#422585" stop-opacity="0.595"/>
<stop offset="1" stop-color="#422585" stop-opacity="0.19"/>
</linearGradient>
<linearGradient id="paint4_linear_1357_33075" x1="4" y1="41.1786" x2="19.6429" y2="41.1786" gradientUnits="userSpaceOnUse">
<stop stop-color="#422585"/>
<stop offset="0.5" stop-color="#422585" stop-opacity="0.595"/>
<stop offset="1" stop-color="#422585" stop-opacity="0.19"/>
</linearGradient>
<linearGradient id="paint5_linear_1357_33075" x1="35.2861" y1="41.1786" x2="19.6433" y2="41.1786" gradientUnits="userSpaceOnUse">
<stop stop-color="#422585"/>
<stop offset="0.5" stop-color="#422585" stop-opacity="0.595"/>
<stop offset="1" stop-color="#422585" stop-opacity="0.19"/>
</linearGradient>
<linearGradient id="paint6_linear_1357_33075" x1="45.7139" y1="41.1786" x2="61.3567" y2="41.1786" gradientUnits="userSpaceOnUse">
<stop stop-color="#422585"/>
<stop offset="0.5" stop-color="#422585" stop-opacity="0.595"/>
<stop offset="1" stop-color="#422585" stop-opacity="0.19"/>
</linearGradient>
<linearGradient id="paint7_linear_1357_33075" x1="77" y1="41.1786" x2="61.3571" y2="41.1786" gradientUnits="userSpaceOnUse">
<stop stop-color="#422585"/>
<stop offset="0.5" stop-color="#422585" stop-opacity="0.595"/>
<stop offset="1" stop-color="#422585" stop-opacity="0.19"/>
</linearGradient>
<linearGradient id="paint8_linear_1357_33075" x1="14.5316" y1="14.4694" x2="25.5927" y2="25.5306" gradientUnits="userSpaceOnUse">
<stop stop-color="#422585"/>
<stop offset="0.5" stop-color="#422585" stop-opacity="0.595"/>
<stop offset="1" stop-color="#422585" stop-opacity="0.19"/>
</linearGradient>
<linearGradient id="paint9_linear_1357_33075" x1="36.6536" y1="36.5905" x2="25.5925" y2="25.5293" gradientUnits="userSpaceOnUse">
<stop stop-color="#422585"/>
<stop offset="0.5" stop-color="#422585" stop-opacity="0.595"/>
<stop offset="1" stop-color="#422585" stop-opacity="0.19"/>
</linearGradient>
<linearGradient id="paint10_linear_1357_33075" x1="44.0277" y1="43.9655" x2="55.0888" y2="55.0267" gradientUnits="userSpaceOnUse">
<stop stop-color="#422585"/>
<stop offset="0.5" stop-color="#422585" stop-opacity="0.595"/>
<stop offset="1" stop-color="#422585" stop-opacity="0.19"/>
</linearGradient>
<linearGradient id="paint11_linear_1357_33075" x1="66.1497" y1="66.0866" x2="55.0886" y2="55.0254" gradientUnits="userSpaceOnUse">
<stop stop-color="#422585"/>
<stop offset="0.5" stop-color="#422585" stop-opacity="0.595"/>
<stop offset="1" stop-color="#422585" stop-opacity="0.19"/>
</linearGradient>
<linearGradient id="paint12_linear_1357_33075" x1="66.4684" y1="14.4694" x2="55.4073" y2="25.5306" gradientUnits="userSpaceOnUse">
<stop stop-color="#422585"/>
<stop offset="0.5" stop-color="#422585" stop-opacity="0.595"/>
<stop offset="1" stop-color="#422585" stop-opacity="0.19"/>
</linearGradient>
<linearGradient id="paint13_linear_1357_33075" x1="44.3464" y1="36.5905" x2="55.4075" y2="25.5293" gradientUnits="userSpaceOnUse">
<stop stop-color="#422585"/>
<stop offset="0.5" stop-color="#422585" stop-opacity="0.595"/>
<stop offset="1" stop-color="#422585" stop-opacity="0.19"/>
</linearGradient>
<linearGradient id="paint14_linear_1357_33075" x1="36.9723" y1="43.9655" x2="25.9112" y2="55.0267" gradientUnits="userSpaceOnUse">
<stop stop-color="#422585"/>
<stop offset="0.5" stop-color="#422585" stop-opacity="0.595"/>
<stop offset="1" stop-color="#422585" stop-opacity="0.19"/>
</linearGradient>
<linearGradient id="paint15_linear_1357_33075" x1="14.8503" y1="66.0866" x2="25.9114" y2="55.0254" gradientUnits="userSpaceOnUse">
<stop stop-color="#422585"/>
<stop offset="0.5" stop-color="#422585" stop-opacity="0.595"/>
<stop offset="1" stop-color="#422585" stop-opacity="0.19"/>
</linearGradient>
</defs>
</svg>
