<svg width="80" height="80" viewBox="0 0 80 80" fill="none" xmlns="http://www.w3.org/2000/svg">
<g clip-path="url(#clip0_1005_26621)">
<path fill-rule="evenodd" clip-rule="evenodd" d="M72 40C72 22.3269 57.6731 8 40 8C22.3269 8 8 22.3269 8 40C8 57.6731 22.3269 72 40 72C57.6731 72 72 57.6731 72 40ZM36 40C36 54.0433 37.1308 65.9737 38.7036 70.2821C38.4067 69.9741 38.0856 69.5495 37.7469 68.9765C36.86 67.4759 36.0266 65.238 35.3133 62.3849C33.8906 56.6941 33 48.7794 33 40C33 31.2206 33.8906 23.3059 35.3133 17.6151C36.0266 14.762 36.86 12.5241 37.7469 11.0235C38.0856 10.4505 38.4066 10.0259 38.7036 9.71794C37.1308 14.0263 36 25.9567 36 40ZM42.2531 68.9765C41.9144 69.5496 41.5933 69.9741 41.2963 70.2821C42.8692 65.9737 44 54.0433 44 40C44 25.9567 42.8692 14.0263 41.2963 9.71794C41.5933 10.0259 41.9144 10.4504 42.2531 11.0235C43.14 12.5241 43.9734 14.762 44.6867 17.6151C46.1094 23.3059 47 31.2206 47 40C47 48.7794 46.1094 56.6941 44.6867 62.3849C43.9734 65.238 43.14 67.4759 42.2531 68.9765ZM37.0786 69.7993C36.7454 69.5237 36.4113 69.1986 36.0773 68.8219C34.7517 67.3267 33.5122 65.1061 32.451 62.2763C30.3314 56.624 29 48.7484 29 40C29 31.2516 30.3314 23.376 32.451 17.7237C33.5122 14.8939 34.7517 12.6733 36.0773 11.1781C36.4113 10.8014 36.7454 10.4763 37.0786 10.2007C34.1052 14.8683 32 26.4507 32 40C32 53.5493 34.1052 65.1317 37.0786 69.7993ZM42.9214 69.7993C43.2546 69.5237 43.5887 69.1986 43.9227 68.8219C45.2483 67.3267 46.4878 65.1061 47.549 62.2763C49.6686 56.624 51 48.7484 51 40C51 31.2516 49.6686 23.376 47.549 17.7237C46.4878 14.8939 45.2483 12.6733 43.9227 11.1781C43.5887 10.8014 43.2546 10.4763 42.9214 10.2007C45.8948 14.8683 48 26.4507 48 40C48 53.5493 45.8948 65.1317 42.9214 69.7993ZM29.5807 62.1802C31.2049 65.4286 33.1228 67.8446 35.184 69.3187C30.9544 64.371 28 53.1055 28 40C28 26.8945 30.9544 15.629 35.184 10.6813C33.1228 12.1554 31.2049 14.5714 29.5807 17.8198C26.7683 23.4445 25 31.285 25 40C25 48.715 26.7683 56.5555 29.5807 62.1802ZM50.4193 62.1802C48.7951 65.4286 46.8772 67.8446 44.816 69.3187C49.0456 64.371 52 53.1055 52 40C52 26.8945 49.0456 15.629 44.816 10.6813C46.8772 12.1554 48.7951 14.5714 50.4193 17.8198C53.2317 23.4445 55 31.285 55 40C55 48.715 53.2317 56.5555 50.4193 62.1802ZM33.0718 68.8526C30.7035 67.3276 28.5396 65.0314 26.7059 62.0974C23.2007 56.4891 21 48.6791 21 40C21 31.3209 23.2007 23.5109 26.7059 17.9026C28.5396 14.9686 30.7035 12.6724 33.0718 11.1474C27.7045 16.312 24 27.2908 24 40C24 52.7092 27.7046 63.688 33.0718 68.8526ZM46.9282 68.8526C49.2965 67.3276 51.4604 65.0314 53.2941 62.0974C56.7993 56.4891 59 48.6791 59 40C59 31.3209 56.7993 23.5109 53.2941 17.9026C51.4604 14.9686 49.2965 12.6724 46.9282 11.1474C52.2954 16.312 56 27.2908 56 40C56 52.7092 52.2954 63.688 46.9282 68.8526ZM23.8294 62.0274C25.8315 64.6968 28.1802 66.8598 30.7661 68.3927C24.3681 63.055 20 52.3437 20 40C20 27.6563 24.3681 16.945 30.7661 11.6073C28.1802 13.1402 25.8315 15.3031 23.8294 17.9726C19.6281 23.5743 17 31.3589 17 40C17 48.6411 19.6281 56.4257 23.8294 62.0274ZM56.1706 62.0274C54.1685 64.6969 51.8198 66.8598 49.2339 68.3927C55.6318 63.0551 60 52.3437 60 40C60 27.6563 55.6318 16.9449 49.2339 11.6073C51.8198 13.1402 54.1685 15.3031 56.1706 17.9726C60.3719 23.5743 63 31.3589 63 40C63 48.6411 60.3719 56.4257 56.1706 62.0274ZM28.2616 67.9178C19.2676 62.9219 13 52.3595 13 40C13 27.6405 19.2676 17.0781 28.2615 12.0822C20.9439 17.5638 16 28.0121 16 40C16 51.9879 20.944 62.4362 28.2616 67.9178ZM51.7384 67.9178C60.7323 62.9219 67 52.3595 67 40C67 27.6405 60.7323 17.0781 51.7384 12.0822C59.056 17.5638 64 28.0121 64 40C64 51.9879 59.056 62.4362 51.7384 67.9178ZM9 40C9 51.9483 15.7596 62.3177 25.6633 67.4928C17.4801 61.9072 12 51.685 12 40C12 28.315 17.4801 18.0928 25.6633 12.5072C15.7596 17.6823 9 28.0517 9 40ZM71 40C71 51.9483 64.2404 62.3177 54.3367 67.4928C62.5199 61.9072 68 51.685 68 40C68 28.315 62.5199 18.0928 54.3367 12.5072C64.2404 17.6823 71 28.0517 71 40ZM41.8362 62.5034C42.5534 56.7651 43 48.8085 43 40C43 31.1915 42.5534 23.2349 41.8362 17.4966C41.4766 14.6205 41.0537 12.34 40.598 10.7981C40.5651 10.687 40.5325 10.5809 40.5 10.4797V69.5203C40.5325 69.4191 40.5651 69.313 40.598 69.2019C41.0537 67.66 41.4766 65.3795 41.8362 62.5034ZM39.5 10.4797V69.5203C39.4675 69.4191 39.4349 69.313 39.402 69.2019C38.9463 67.66 38.5234 65.3795 38.1639 62.5034C37.4466 56.7651 37 48.8085 37 40C37 31.1915 37.4466 23.2349 38.1639 17.4966C38.5234 14.6205 38.9463 12.34 39.402 10.7981C39.4349 10.687 39.4675 10.5809 39.5 10.4797Z" fill="url(#paint0_linear_1005_26621)"/>
</g>
<defs>
<linearGradient id="paint0_linear_1005_26621" x1="26.5" y1="11" x2="50.5" y2="74" gradientUnits="userSpaceOnUse">
<stop stop-color="#422585"/>
<stop offset="1" stop-color="#422585" stop-opacity="0"/>
</linearGradient>
<clipPath id="clip0_1005_26621">
<rect width="80" height="80" fill="white"/>
</clipPath>
</defs>
</svg>
