<svg width="80" height="80" viewBox="0 0 80 80" fill="none" xmlns="http://www.w3.org/2000/svg">
<path d="M51.1943 40C51.1943 48.8107 49.6462 56.7754 47.1534 62.528C45.9068 65.4047 44.4289 67.7169 42.8005 69.3064C41.1732 70.8947 39.4086 71.75 37.5776 71.75C35.7466 71.75 33.982 70.8947 32.3547 69.3064C30.7263 67.7169 29.2484 65.4047 28.0018 62.528C25.509 56.7754 23.9609 48.8107 23.9609 40C23.9609 31.1893 25.509 23.2246 28.0018 17.472C29.2484 14.5953 30.7263 12.2831 32.3547 10.6936C33.982 9.10529 35.7466 8.25 37.5776 8.25C39.4086 8.25 41.1732 9.10529 42.8005 10.6936C44.4289 12.2831 45.9068 14.5953 47.1534 17.472C49.6462 23.2246 51.1943 31.1893 51.1943 40Z" stroke="url(#paint0_linear_1005_26698)" stroke-width="0.5"/>
<path d="M53.3271 40C53.3271 48.8107 51.7791 56.7754 49.2862 62.528C48.0397 65.4047 46.5617 67.7169 44.9333 69.3064C43.3061 70.8947 41.5414 71.75 39.7104 71.75C37.8794 71.75 36.1148 70.8947 34.4875 69.3064C32.8591 67.7169 31.3812 65.4047 30.1346 62.528C27.6418 56.7754 26.0938 48.8107 26.0938 40C26.0938 31.1893 27.6418 23.2246 30.1346 17.472C31.3812 14.5953 32.8591 12.2831 34.4875 10.6936C36.1148 9.10529 37.8794 8.25 39.7104 8.25C41.5414 8.25 43.3061 9.10529 44.9333 10.6936C46.5617 12.2831 48.0397 14.5953 49.2862 17.472C51.7791 23.2246 53.3271 31.1893 53.3271 40Z" stroke="url(#paint1_linear_1005_26698)" stroke-width="0.5"/>
<path d="M55.4599 40C55.4599 48.8107 53.9119 56.7754 51.4191 62.528C50.1725 65.4047 48.6945 67.7169 47.0661 69.3064C45.4389 70.8947 43.6743 71.75 41.8432 71.75C40.0122 71.75 38.2476 70.8947 36.6203 69.3064C34.9919 67.7169 33.514 65.4047 32.2674 62.528C29.7746 56.7754 28.2266 48.8107 28.2266 40C28.2266 31.1893 29.7746 23.2246 32.2674 17.472C33.514 14.5953 34.9919 12.2831 36.6203 10.6936C38.2476 9.10529 40.0122 8.25 41.8432 8.25C43.6743 8.25 45.4389 9.10529 47.0661 10.6936C48.6945 12.2831 50.1725 14.5953 51.4191 17.472C53.9119 23.2246 55.4599 31.1893 55.4599 40Z" stroke="url(#paint2_linear_1005_26698)" stroke-width="0.5"/>
<path d="M45.4545 30.0542C53.0848 34.4596 59.2084 39.7825 62.9439 44.8177C64.8119 47.3356 66.0754 49.7716 66.6377 51.9766C67.1996 54.18 67.058 56.1359 66.1425 57.7216C65.2269 59.3073 63.6039 60.4079 61.4148 61.0229C59.2241 61.6385 56.4827 61.7623 53.3681 61.4035C47.1397 60.686 39.4681 58.0443 31.8378 53.639C24.2075 49.2336 18.0839 43.9106 14.3484 38.8755C12.4804 36.3575 11.2169 33.9215 10.6546 31.7166C10.0927 29.5131 10.2343 27.5573 11.1498 25.9716C12.0654 24.3859 13.6884 23.2853 15.8775 22.6702C18.0682 22.0547 20.8096 21.9309 23.9242 22.2897C30.1526 23.0072 37.8242 25.6489 45.4545 30.0542Z" stroke="url(#paint3_linear_1005_26698)" stroke-width="0.5"/>
<path d="M46.5209 28.2065C54.1512 32.6119 60.2748 37.9349 64.0103 42.97C65.8783 45.488 67.1418 47.924 67.7041 50.1289C68.266 52.3324 68.1244 54.2882 67.2089 55.8739C66.2933 57.4596 64.6703 58.5602 62.4812 59.1753C60.2905 59.7908 57.5491 59.9146 54.4345 59.5558C48.2061 58.8384 40.5345 56.1967 32.9042 51.7913C25.2739 47.386 19.1503 42.063 15.4148 37.0278C13.5468 34.5099 12.2833 32.0739 11.721 29.8689C11.1591 27.6655 11.3007 25.7096 12.2162 24.1239C13.1318 22.5382 14.7548 21.4377 16.9439 20.8226C19.1346 20.207 21.876 20.0832 24.9906 20.442C31.219 21.1595 38.8906 23.8012 46.5209 28.2065Z" stroke="url(#paint4_linear_1005_26698)" stroke-width="0.5"/>
<path d="M47.5873 26.3589C55.2176 30.7642 61.3412 36.0872 65.0767 41.1224C66.9447 43.6403 68.2082 46.0763 68.7705 48.2813C69.3324 50.4847 69.1908 52.4406 68.2753 54.0263C67.3598 55.612 65.7367 56.7125 63.5476 57.3276C61.3569 57.9432 58.6155 58.067 55.5009 57.7082C49.2725 56.9907 41.6009 54.349 33.9706 49.9436C26.3403 45.5383 20.2167 40.2153 16.4812 35.1802C14.6132 32.6622 13.3497 30.2262 12.7874 28.0213C12.2255 25.8178 12.3671 23.862 13.2827 22.2763C14.1982 20.6906 15.8212 19.59 18.0103 18.9749C20.2011 18.3594 22.9424 18.2356 26.057 18.5944C32.2854 19.3118 39.957 21.9535 47.5873 26.3589Z" stroke="url(#paint5_linear_1005_26698)" stroke-width="0.5"/>
<path d="M33.9713 30.0542C26.341 34.4596 20.2174 39.7825 16.4819 44.8177C14.6139 47.3356 13.3504 49.7716 12.7881 51.9766C12.2262 54.18 12.3678 56.1359 13.2833 57.7216C14.1988 59.3073 15.8219 60.4079 18.011 61.0229C20.2017 61.6385 22.9431 61.7623 26.0577 61.4035C32.2861 60.686 39.9577 58.0443 47.588 53.639C55.2183 49.2336 61.3418 43.9106 65.0774 38.8755C66.9454 36.3575 68.2089 33.9215 68.7712 31.7166C69.3331 29.5131 69.1915 27.5573 68.2759 25.9716C67.3604 24.3859 65.7374 23.2853 63.5482 22.6702C61.3575 22.0547 58.6162 21.9309 55.5016 22.2897C49.2732 23.0072 41.6016 25.6489 33.9713 30.0542Z" stroke="url(#paint6_linear_1005_26698)" stroke-width="0.5"/>
<path d="M32.9049 28.2065C25.2746 32.6119 19.151 37.9349 15.4155 42.97C13.5475 45.488 12.284 47.924 11.7217 50.1289C11.1598 52.3324 11.3014 54.2882 12.2169 55.8739C13.1324 57.4596 14.7555 58.5602 16.9446 59.1753C19.1353 59.7908 21.8767 59.9146 24.9913 59.5558C31.2197 58.8384 38.8913 56.1967 46.5216 51.7913C54.1518 47.386 60.2754 42.063 64.011 37.0278C65.879 34.5099 67.1425 32.0739 67.7048 29.8689C68.2666 27.6655 68.125 25.7096 67.2095 24.1239C66.294 22.5382 64.671 21.4377 62.4818 20.8226C60.2911 20.207 57.5498 20.0832 54.4351 20.442C48.2068 21.1595 40.5352 23.8012 32.9049 28.2065Z" stroke="url(#paint7_linear_1005_26698)" stroke-width="0.5"/>
<path d="M31.8385 26.3589C24.2082 30.7642 18.0846 36.0872 14.3491 41.1224C12.481 43.6403 11.2176 46.0763 10.6553 48.2813C10.0934 50.4847 10.235 52.4406 11.1505 54.0263C12.066 55.612 13.689 56.7125 15.8782 57.3276C18.0689 57.9432 20.8103 58.067 23.9249 57.7082C30.1533 56.9907 37.8249 54.349 45.4552 49.9436C53.0854 45.5383 59.209 40.2153 62.9446 35.1802C64.8126 32.6622 66.076 30.2262 66.6383 28.0213C67.2002 25.8178 67.0586 23.862 66.1431 22.2763C65.2276 20.6906 63.6046 19.59 61.4154 18.9749C59.2247 18.3594 56.4834 18.2356 53.3687 18.5944C47.1404 19.3118 39.4688 21.9535 31.8385 26.3589Z" stroke="url(#paint8_linear_1005_26698)" stroke-width="0.5"/>
<defs>
<linearGradient id="paint0_linear_1005_26698" x1="37.5776" y1="8" x2="52.6641" y2="78.38" gradientUnits="userSpaceOnUse">
<stop stop-color="#422585"/>
<stop offset="1" stop-color="#422585" stop-opacity="0"/>
</linearGradient>
<linearGradient id="paint1_linear_1005_26698" x1="39.7104" y1="8" x2="54.7969" y2="78.38" gradientUnits="userSpaceOnUse">
<stop stop-color="#422585"/>
<stop offset="1" stop-color="#422585" stop-opacity="0"/>
</linearGradient>
<linearGradient id="paint2_linear_1005_26698" x1="41.8432" y1="8" x2="56.9297" y2="78.38" gradientUnits="userSpaceOnUse">
<stop stop-color="#422585"/>
<stop offset="1" stop-color="#422585" stop-opacity="0"/>
</linearGradient>
<linearGradient id="paint3_linear_1005_26698" x1="10.9333" y1="25.8466" x2="79.4275" y2="47.9713" gradientUnits="userSpaceOnUse">
<stop stop-color="#422585"/>
<stop offset="1" stop-color="#422585" stop-opacity="0"/>
</linearGradient>
<linearGradient id="paint4_linear_1005_26698" x1="11.9997" y1="23.9989" x2="80.4939" y2="46.1237" gradientUnits="userSpaceOnUse">
<stop stop-color="#422585"/>
<stop offset="1" stop-color="#422585" stop-opacity="0"/>
</linearGradient>
<linearGradient id="paint5_linear_1005_26698" x1="13.0661" y1="22.1513" x2="81.5603" y2="44.276" gradientUnits="userSpaceOnUse">
<stop stop-color="#422585"/>
<stop offset="1" stop-color="#422585" stop-opacity="0"/>
</linearGradient>
<linearGradient id="paint6_linear_1005_26698" x1="68.4924" y1="25.8466" x2="-0.00169073" y2="47.9713" gradientUnits="userSpaceOnUse">
<stop stop-color="#422585"/>
<stop offset="1" stop-color="#422585" stop-opacity="0"/>
</linearGradient>
<linearGradient id="paint7_linear_1005_26698" x1="67.426" y1="23.9989" x2="-1.0681" y2="46.1237" gradientUnits="userSpaceOnUse">
<stop stop-color="#422585"/>
<stop offset="1" stop-color="#422585" stop-opacity="0"/>
</linearGradient>
<linearGradient id="paint8_linear_1005_26698" x1="66.3596" y1="22.1513" x2="-2.1345" y2="44.276" gradientUnits="userSpaceOnUse">
<stop stop-color="#422585"/>
<stop offset="1" stop-color="#422585" stop-opacity="0"/>
</linearGradient>
</defs>
</svg>
