<svg width="64" height="64" viewBox="0 0 64 64" fill="none" xmlns="http://www.w3.org/2000/svg">
<rect width="64" height="64" rx="32" fill="#422585"/>
<path fill-rule="evenodd" clip-rule="evenodd" d="M28.0197 22.14C27.2663 23.185 26.9997 24.49 26.9997 25.3333V27H36.9997V25.3333C36.9997 24.4883 36.733 23.185 35.9813 22.14C35.2897 21.18 34.123 20.3333 31.9997 20.3333C29.8763 20.3333 28.7097 21.18 28.0197 22.14ZM40.333 27V25.3333C40.333 23.955 39.933 21.9267 38.6863 20.1933C37.3763 18.375 35.2097 17 31.9997 17C28.7897 17 26.623 18.375 25.313 20.1933C24.0663 21.9267 23.6663 23.955 23.6663 25.3333V27H16.9997C16.5576 27 16.1337 27.1756 15.8212 27.4882C15.5086 27.8007 15.333 28.2246 15.333 28.6667C15.333 29.1087 15.5086 29.5326 15.8212 29.8452C16.1337 30.1577 16.5576 30.3333 16.9997 30.3333H17.158L18.6747 45.5C18.716 45.9111 18.9085 46.2922 19.215 46.5694C19.5214 46.8465 19.9198 47 20.333 47H43.6663C44.0795 47 44.478 46.8465 44.7844 46.5694C45.0908 46.2922 45.2834 45.9111 45.3247 45.5L46.8413 30.3333H46.9997C47.4417 30.3333 47.8656 30.1577 48.1782 29.8452C48.4907 29.5326 48.6663 29.1087 48.6663 28.6667C48.6663 28.2246 48.4907 27.8007 48.1782 27.4882C47.8656 27.1756 47.4417 27 46.9997 27H40.333ZM26.9997 35.3333C26.9997 34.8913 26.8241 34.4674 26.5115 34.1548C26.199 33.8423 25.775 33.6667 25.333 33.6667C24.891 33.6667 24.4671 33.8423 24.1545 34.1548C23.8419 34.4674 23.6663 34.8913 23.6663 35.3333V38.6667C23.6663 39.1087 23.8419 39.5326 24.1545 39.8452C24.4671 40.1577 24.891 40.3333 25.333 40.3333C25.775 40.3333 26.199 40.1577 26.5115 39.8452C26.8241 39.5326 26.9997 39.1087 26.9997 38.6667V35.3333ZM33.6663 35.3333C33.6663 34.8913 33.4907 34.4674 33.1782 34.1548C32.8656 33.8423 32.4417 33.6667 31.9997 33.6667C31.5576 33.6667 31.1337 33.8423 30.8212 34.1548C30.5086 34.4674 30.333 34.8913 30.333 35.3333V38.6667C30.333 39.1087 30.5086 39.5326 30.8212 39.8452C31.1337 40.1577 31.5576 40.3333 31.9997 40.3333C32.4417 40.3333 32.8656 40.1577 33.1782 39.8452C33.4907 39.5326 33.6663 39.1087 33.6663 38.6667V35.3333ZM40.333 35.3333C40.333 34.8913 40.1574 34.4674 39.8449 34.1548C39.5323 33.8423 39.1084 33.6667 38.6663 33.6667C38.2243 33.6667 37.8004 33.8423 37.4878 34.1548C37.1753 34.4674 36.9997 34.8913 36.9997 35.3333V38.6667C36.9997 39.1087 37.1753 39.5326 37.4878 39.8452C37.8004 40.1577 38.2243 40.3333 38.6663 40.3333C39.1084 40.3333 39.5323 40.1577 39.8449 39.8452C40.1574 39.5326 40.333 39.1087 40.333 38.6667V35.3333Z" fill="#FBF7FA"/>
</svg>
