<svg width="74" height="52" viewBox="0 0 74 52" fill="none" xmlns="http://www.w3.org/2000/svg">
<path d="M44.3102 52L53.7492 16.132L57.5248 31.5776C52.6051 31.5776 48.6007 30.1474 45.5116 27.2871C42.4224 24.5412 40.8779 20.8229 40.8779 16.132C40.8779 11.4411 42.4797 7.55115 45.6832 4.46204C48.7723 1.48735 52.6623 -1.8654e-06 57.3531 -1.45532e-06C62.1584 -1.03522e-06 66.1628 1.48735 69.3663 4.46204C72.4554 7.55115 74 11.4411 74 16.132C74 17.5049 73.9428 18.8207 73.8284 20.0792C73.5996 21.3377 73.1419 22.9395 72.4554 24.8845C71.769 26.8295 70.7393 29.4037 69.3663 32.6073L61.3003 52L44.3102 52ZM3.80859 52L13.2475 16.132L17.0231 31.5776C12.1034 31.5776 8.09902 30.1474 5.00991 27.2871C1.9208 24.5412 0.376246 20.8229 0.376247 16.132C0.376247 11.4411 1.97801 7.55115 5.18153 4.46204C8.27064 1.48734 12.1606 -5.40617e-06 16.8515 -4.99608e-06C21.6568 -4.57599e-06 25.6612 1.48735 28.8647 4.46204C31.9538 7.55115 33.4984 11.4411 33.4984 16.132C33.4984 17.5049 33.4411 18.8207 33.3267 20.0792C33.0979 21.3377 32.6403 22.9395 31.9538 24.8845C31.2673 26.8295 30.2376 29.4037 28.8647 32.6073L20.7987 52L3.80859 52Z" fill="#422585"/>
</svg>
