<svg width="16" height="16" viewBox="0 0 16 16" fill="none" xmlns="http://www.w3.org/2000/svg">
<path d="M4.66634 2.66732C4.66634 2.3137 4.80682 1.97456 5.05687 1.72451C5.30691 1.47446 5.64605 1.33398 5.99967 1.33398H9.99967C10.3533 1.33398 10.6924 1.47446 10.9425 1.72451C11.1925 1.97456 11.333 2.3137 11.333 2.66732V4.00065H13.9997C14.1765 4.00065 14.3461 4.07089 14.4711 4.19591C14.5961 4.32094 14.6663 4.49051 14.6663 4.66732C14.6663 4.84413 14.5961 5.0137 14.4711 5.13872C14.3461 5.26375 14.1765 5.33398 13.9997 5.33398H13.287L12.709 13.4287C12.6851 13.765 12.5345 14.0799 12.2878 14.3097C12.041 14.5395 11.7162 14.6673 11.379 14.6673H4.61967C4.28243 14.6673 3.95772 14.5395 3.71093 14.3097C3.46414 14.0799 3.31362 13.765 3.28967 13.4287L2.71301 5.33398H1.99967C1.82286 5.33398 1.65329 5.26375 1.52827 5.13872C1.40325 5.0137 1.33301 4.84413 1.33301 4.66732C1.33301 4.49051 1.40325 4.32094 1.52827 4.19591C1.65329 4.07089 1.82286 4.00065 1.99967 4.00065H4.66634V2.66732ZM5.99967 4.00065H9.99967V2.66732H5.99967V4.00065ZM4.04901 5.33398L4.62034 13.334H11.3797L11.951 5.33398H4.04901ZM6.66634 6.66732C6.84315 6.66732 7.01272 6.73756 7.13775 6.86258C7.26277 6.9876 7.33301 7.15717 7.33301 7.33398V11.334C7.33301 11.5108 7.26277 11.6804 7.13775 11.8054C7.01272 11.9304 6.84315 12.0007 6.66634 12.0007C6.48953 12.0007 6.31996 11.9304 6.19494 11.8054C6.06991 11.6804 5.99967 11.5108 5.99967 11.334V7.33398C5.99967 7.15717 6.06991 6.9876 6.19494 6.86258C6.31996 6.73756 6.48953 6.66732 6.66634 6.66732ZM9.33301 6.66732C9.50982 6.66732 9.67939 6.73756 9.80441 6.86258C9.92944 6.9876 9.99967 7.15717 9.99967 7.33398V11.334C9.99967 11.5108 9.92944 11.6804 9.80441 11.8054C9.67939 11.9304 9.50982 12.0007 9.33301 12.0007C9.1562 12.0007 8.98663 11.9304 8.8616 11.8054C8.73658 11.6804 8.66634 11.5108 8.66634 11.334V7.33398C8.66634 7.15717 8.73658 6.9876 8.8616 6.86258C8.98663 6.73756 9.1562 6.66732 9.33301 6.66732Z" fill="#C5C2C7"/>
</svg>
