<svg width="24" height="24" viewBox="0 0 24 24" fill="none" xmlns="http://www.w3.org/2000/svg">
<path d="M12.33 5.20596C12.541 4.99529 12.8269 4.87695 13.125 4.87695C13.4231 4.87695 13.7091 4.99529 13.92 5.20596L20.295 11.581C20.5057 11.7919 20.624 12.0778 20.624 12.376C20.624 12.6741 20.5057 12.96 20.295 13.171L13.92 19.546C13.7068 19.7449 13.4246 19.8533 13.1331 19.8483C12.8415 19.8432 12.5632 19.7252 12.357 19.519C12.1508 19.3127 12.0327 19.0345 12.0277 18.7429C12.0227 18.4513 12.131 18.1692 12.33 17.956L16.785 13.501L5.62501 13.501C5.32664 13.501 5.0405 13.3824 4.82952 13.1715C4.61854 12.9605 4.50001 12.6743 4.50001 12.376C4.50001 12.0776 4.61854 11.7914 4.82952 11.5805C5.0405 11.3695 5.32664 11.251 5.62501 11.251L16.785 11.251L12.33 6.79596C12.1193 6.58503 12.001 6.29909 12.001 6.00096C12.001 5.70284 12.1193 5.4169 12.33 5.20596Z" fill="#422585"/>
</svg>
