<svg width="21" height="21" viewBox="0 0 21 21" fill="none" xmlns="http://www.w3.org/2000/svg">
<path d="M10.7748 4.49683C10.9506 4.32127 11.1889 4.22266 11.4373 4.22266C11.6858 4.22266 11.9241 4.32127 12.0998 4.49683L17.4123 9.80933C17.5879 9.98511 17.6865 10.2234 17.6865 10.4718C17.6865 10.7203 17.5879 10.9585 17.4123 11.1343L12.0998 16.4468C11.9222 16.6126 11.687 16.703 11.4441 16.6988C11.2011 16.6946 10.9692 16.5962 10.7973 16.4243C10.6255 16.2525 10.5271 16.0206 10.5229 15.7776C10.5187 15.5346 10.609 15.2995 10.7748 15.1218L14.4873 11.4093L5.18735 11.4093C4.93871 11.4093 4.70025 11.3106 4.52444 11.1347C4.34862 10.9589 4.24985 10.7205 4.24985 10.4718C4.24985 10.2232 4.34862 9.98473 4.52444 9.80892C4.70025 9.6331 4.93871 9.53433 5.18735 9.53433L14.4873 9.53433L10.7748 5.82183C10.5993 5.64605 10.5007 5.40777 10.5007 5.15933C10.5007 4.91089 10.5993 4.67261 10.7748 4.49683Z" fill="#FBF7FA"/>
</svg>
